<svg id="visual" viewBox="0 0 900 600" width="900" height="600" xmlns="http://www.w3.org/2000/svg" xmlns:xlink="http://www.w3.org/1999/xlink" version="1.1"><rect x="0" y="0" width="900" height="600" fill="#001220"></rect><path d="M0 381L21.5 391C43 401 86 421 128.8 430C171.7 439 214.3 437 257.2 437C300 437 343 439 385.8 426.2C428.7 413.3 471.3 385.7 514.2 376.2C557 366.7 600 375.3 642.8 386.5C685.7 397.7 728.3 411.3 771.2 412.8C814 414.3 857 403.7 878.5 398.3L900 393L900 601L878.5 601C857 601 814 601 771.2 601C728.3 601 685.7 601 642.8 601C600 601 557 601 514.2 601C471.3 601 428.7 601 385.8 601C343 601 300 601 257.2 601C214.3 601 171.7 601 128.8 601C86 601 43 601 21.5 601L0 601Z" fill="#d8d8d8"></path><path d="M0 469L21.5 458.5C43 448 86 427 128.8 428.7C171.7 430.3 214.3 454.7 257.2 460.8C300 467 343 455 385.8 445.2C428.7 435.3 471.3 427.7 514.2 433C557 438.3 600 456.7 642.8 456C685.7 455.3 728.3 435.7 771.2 430.5C814 425.3 857 434.7 878.5 439.3L900 444L900 601L878.5 601C857 601 814 601 771.2 601C728.3 601 685.7 601 642.8 601C600 601 557 601 514.2 601C471.3 601 428.7 601 385.8 601C343 601 300 601 257.2 601C214.3 601 171.7 601 128.8 601C86 601 43 601 21.5 601L0 601Z" fill="#d2d2d2"></path><path d="M0 503L21.5 500.3C43 497.7 86 492.3 128.8 483.8C171.7 475.3 214.3 463.7 257.2 459.7C300 455.7 343 459.3 385.8 457.7C428.7 456 471.3 449 514.2 449.3C557 449.7 600 457.3 642.8 461.2C685.7 465 728.3 465 771.2 468.5C814 472 857 479 878.5 482.5L900 486L900 601L878.5 601C857 601 814 601 771.2 601C728.3 601 685.7 601 642.8 601C600 601 557 601 514.2 601C471.3 601 428.7 601 385.8 601C343 601 300 601 257.2 601C214.3 601 171.7 601 128.8 601C86 601 43 601 21.5 601L0 601Z" fill="#cdcdcd"></path><path d="M0 533L21.5 531.5C43 530 86 527 128.8 522.2C171.7 517.3 214.3 510.7 257.2 507.2C300 503.7 343 503.3 385.8 502.8C428.7 502.3 471.3 501.7 514.2 499.2C557 496.7 600 492.3 642.8 490.2C685.7 488 728.3 488 771.2 493.7C814 499.3 857 510.7 878.5 516.3L900 522L900 601L878.5 601C857 601 814 601 771.2 601C728.3 601 685.7 601 642.8 601C600 601 557 601 514.2 601C471.3 601 428.7 601 385.8 601C343 601 300 601 257.2 601C214.3 601 171.7 601 128.8 601C86 601 43 601 21.5 601L0 601Z" fill="#c8c8c8"></path><path d="M0 565L21.5 562.8C43 560.7 86 556.3 128.8 551.8C171.7 547.3 214.3 542.7 257.2 544.5C300 546.3 343 554.7 385.8 557.3C428.7 560 471.3 557 514.2 552.8C557 548.7 600 543.3 642.8 539.5C685.7 535.7 728.3 533.3 771.2 534C814 534.7 857 538.3 878.5 540.2L900 542L900 601L878.5 601C857 601 814 601 771.2 601C728.3 601 685.7 601 642.8 601C600 601 557 601 514.2 601C471.3 601 428.7 601 385.8 601C343 601 300 601 257.2 601C214.3 601 171.7 601 128.8 601C86 601 43 601 21.5 601L0 601Z" fill="#c3c3c3"></path></svg>